<?xml version="1.0" encoding="UTF-8"?>
<svg xmlns="http://www.w3.org/2000/svg" xmlns:xlink="http://www.w3.org/1999/xlink" width="15pt" height="15pt" viewBox="0 0 15 15" version="1.1">
<g id="surface1">
<path style=" stroke:none;fill-rule:nonzero;fill:#DFF0FE;fill-opacity:1;" d="M 7.5 14.4375 C 3.675781 14.4375 0.5625 11.324219 0.5625 7.5 C 0.5625 3.675781 3.675781 0.5625 7.5 0.5625 C 11.324219 0.5625 14.4375 3.675781 14.4375 7.5 C 14.4375 11.324219 11.324219 14.4375 7.5 14.4375 Z "/>
<path style=" stroke:none;fill-rule:nonzero;fill:#4788C7;fill-opacity:1;" d="M 7.5 0.75 C 11.222656 0.75 14.25 3.777344 14.25 7.5 C 14.25 11.222656 11.222656 14.25 7.5 14.25 C 3.777344 14.25 0.75 11.222656 0.75 7.5 C 0.75 3.777344 3.777344 0.75 7.5 0.75 M 7.5 0.375 C 3.566406 0.375 0.375 3.566406 0.375 7.5 C 0.375 11.433594 3.566406 14.625 7.5 14.625 C 11.433594 14.625 14.625 11.433594 14.625 7.5 C 14.625 3.566406 11.433594 0.375 7.5 0.375 Z "/>
<path style=" stroke:none;fill-rule:nonzero;fill:#FFFFFF;fill-opacity:1;" d="M 7.5 13.3125 C 4.292969 13.3125 1.6875 10.707031 1.6875 7.5 C 1.6875 4.292969 4.292969 1.6875 7.5 1.6875 C 10.707031 1.6875 13.3125 4.292969 13.3125 7.5 C 13.3125 10.707031 10.707031 13.3125 7.5 13.3125 Z "/>
<path style=" stroke:none;fill-rule:nonzero;fill:#4788C7;fill-opacity:1;" d="M 7.5 1.875 C 10.601563 1.875 13.125 4.398438 13.125 7.5 C 13.125 10.601563 10.601563 13.125 7.5 13.125 C 4.398438 13.125 1.875 10.601563 1.875 7.5 C 1.875 4.398438 4.398438 1.875 7.5 1.875 M 7.5 1.5 C 4.1875 1.5 1.5 4.1875 1.5 7.5 C 1.5 10.8125 4.1875 13.5 7.5 13.5 C 10.8125 13.5 13.5 10.8125 13.5 7.5 C 13.5 4.1875 10.8125 1.5 7.5 1.5 Z "/>
<path style="fill:none;stroke-width:1;stroke-linecap:round;stroke-linejoin:miter;stroke:#4788C7;stroke-opacity:1;stroke-miterlimit:4;" d="M 19.5 19.5 L 12.5 12.5 " transform="matrix(0.375,0,0,0.375,0,0)"/>
<path style=" stroke:none;fill-rule:nonzero;fill:#98CCFD;fill-opacity:1;" d="M 8.0625 7.5 C 8.0625 7.8125 7.8125 8.0625 7.5 8.0625 C 7.1875 8.0625 6.9375 7.8125 6.9375 7.5 C 6.9375 7.1875 7.1875 6.9375 7.5 6.9375 C 7.8125 6.9375 8.0625 7.1875 8.0625 7.5 Z "/>
<path style=" stroke:none;fill-rule:nonzero;fill:#4788C7;fill-opacity:1;" d="M 7.5 7.125 C 7.707031 7.125 7.875 7.292969 7.875 7.5 C 7.875 7.707031 7.707031 7.875 7.5 7.875 C 7.292969 7.875 7.125 7.707031 7.125 7.5 C 7.125 7.292969 7.292969 7.125 7.5 7.125 M 7.5 6.75 C 7.085938 6.75 6.75 7.085938 6.75 7.5 C 6.75 7.914063 7.085938 8.25 7.5 8.25 C 7.914063 8.25 8.25 7.914063 8.25 7.5 C 8.25 7.085938 7.914063 6.75 7.5 6.75 Z "/>
<path style="fill:none;stroke-width:1;stroke-linecap:round;stroke-linejoin:miter;stroke:#4788C7;stroke-opacity:1;stroke-miterlimit:4;" d="M 17.458333 7.177083 L 16.96875 4.739583 " transform="matrix(0.375,0,0,0.375,0,0)"/>
<path style="fill:none;stroke-width:1;stroke-linecap:round;stroke-linejoin:miter;stroke:#4788C7;stroke-opacity:1;stroke-miterlimit:4;" d="M 32.802083 17.447917 L 35.260417 16.96875 " transform="matrix(0.375,0,0,0.375,0,0)"/>
<path style="fill:none;stroke-width:1;stroke-linecap:round;stroke-linejoin:miter;stroke:#4788C7;stroke-opacity:1;stroke-miterlimit:4;" d="M 7.1875 22.552083 L 4.739583 23.03125 " transform="matrix(0.375,0,0,0.375,0,0)"/>
<path style="fill:none;stroke-width:1;stroke-linecap:round;stroke-linejoin:miter;stroke:#4788C7;stroke-opacity:1;stroke-miterlimit:4;" d="M 27.25 9.145833 L 28.645833 7.0625 " transform="matrix(0.375,0,0,0.375,0,0)"/>
<path style="fill:none;stroke-width:1;stroke-linecap:round;stroke-linejoin:miter;stroke:#4788C7;stroke-opacity:1;stroke-miterlimit:4;" d="M 30.84375 27.25 L 32.9375 28.645833 " transform="matrix(0.375,0,0,0.375,0,0)"/>
<path style="fill:none;stroke-width:1;stroke-linecap:round;stroke-linejoin:miter;stroke:#4788C7;stroke-opacity:1;stroke-miterlimit:4;" d="M 9.135417 12.739583 L 7.0625 11.354167 " transform="matrix(0.375,0,0,0.375,0,0)"/>
<path style="fill:none;stroke-width:1;stroke-linecap:round;stroke-linejoin:miter;stroke:#4788C7;stroke-opacity:1;stroke-miterlimit:4;" d="M 12.739583 9.135417 L 11.354167 7.0625 " transform="matrix(0.375,0,0,0.375,0,0)"/>
<path style="fill:none;stroke-width:1;stroke-linecap:round;stroke-linejoin:miter;stroke:#4788C7;stroke-opacity:1;stroke-miterlimit:4;" d="M 30.854167 12.75 L 32.9375 11.354167 " transform="matrix(0.375,0,0,0.375,0,0)"/>
<path style="fill:none;stroke-width:1;stroke-linecap:round;stroke-linejoin:miter;stroke:#4788C7;stroke-opacity:1;stroke-miterlimit:4;" d="M 9.145833 27.25 L 7.0625 28.645833 " transform="matrix(0.375,0,0,0.375,0,0)"/>
<path style="fill:none;stroke-width:1;stroke-linecap:round;stroke-linejoin:miter;stroke:#4788C7;stroke-opacity:1;stroke-miterlimit:4;" d="M 22.53125 7.197917 L 23.03125 4.739583 " transform="matrix(0.375,0,0,0.375,0,0)"/>
<path style="fill:none;stroke-width:1;stroke-linecap:round;stroke-linejoin:miter;stroke:#4788C7;stroke-opacity:1;stroke-miterlimit:4;" d="M 32.802083 22.541667 L 35.260417 23.03125 " transform="matrix(0.375,0,0,0.375,0,0)"/>
<path style="fill:none;stroke-width:1;stroke-linecap:round;stroke-linejoin:miter;stroke:#4788C7;stroke-opacity:1;stroke-miterlimit:4;" d="M 7.197917 17.447917 L 4.739583 16.96875 " transform="matrix(0.375,0,0,0.375,0,0)"/>
</g>
</svg>
