<?xml version="1.0" encoding="UTF-8"?>
<svg xmlns="http://www.w3.org/2000/svg" xmlns:xlink="http://www.w3.org/1999/xlink" width="15pt" height="15pt" viewBox="0 0 15 15" version="1.1">
<g id="surface1">
<path style=" stroke:none;fill-rule:nonzero;fill:#DFF0FE;fill-opacity:1;" d="M 0.25 5.441406 L 3.121094 6.167969 L 3.722656 8.898438 L 1.417969 10.761719 Z "/>
<path style=" stroke:none;fill-rule:nonzero;fill:#4788C7;fill-opacity:1;" d="M 0.496094 5.695313 L 2.964844 6.320313 L 3.515625 8.824219 L 1.535156 10.425781 L 0.496094 5.695313 M 0 5.183594 L 1.296875 11.097656 L 3.929688 8.96875 L 3.28125 6.011719 Z "/>
<path style="fill:none;stroke-width:2;stroke-linecap:round;stroke-linejoin:miter;stroke:#4788C7;stroke-opacity:1;stroke-miterlimit:4;" d="M 39 34 L 27 34 C 25.895833 34 25 33.104167 25 32 L 25 25.333333 " transform="matrix(0.375,0,0,0.375,0,0)"/>
<path style=" stroke:none;fill-rule:nonzero;fill:#98CCFD;fill-opacity:1;" d="M 10.3125 9.375 C 10.3125 9.894531 9.894531 10.3125 9.375 10.3125 C 8.855469 10.3125 8.4375 9.894531 8.4375 9.375 C 8.4375 8.855469 8.855469 8.4375 9.375 8.4375 C 9.894531 8.4375 10.3125 8.855469 10.3125 9.375 Z "/>
<path style=" stroke:none;fill-rule:nonzero;fill:#4788C7;fill-opacity:1;" d="M 9.375 8.625 C 9.789063 8.625 10.125 8.960938 10.125 9.375 C 10.125 9.789063 9.789063 10.125 9.375 10.125 C 8.960938 10.125 8.625 9.789063 8.625 9.375 C 8.625 8.960938 8.960938 8.625 9.375 8.625 M 9.375 8.25 C 8.753906 8.25 8.25 8.753906 8.25 9.375 C 8.25 9.996094 8.753906 10.5 9.375 10.5 C 9.996094 10.5 10.5 9.996094 10.5 9.375 C 10.5 8.753906 9.996094 8.25 9.375 8.25 Z "/>
<path style=" stroke:none;fill-rule:nonzero;fill:#DFF0FE;fill-opacity:1;" d="M 4.148438 10.273438 C 4 10.273438 3.871094 10.167969 3.835938 10.023438 L 2.753906 5.09375 C 2.738281 5.011719 2.753906 4.925781 2.796875 4.855469 C 2.84375 4.785156 2.914063 4.734375 2.996094 4.71875 L 13.34375 2.445313 C 13.367188 2.441406 13.390625 2.4375 13.414063 2.4375 C 13.5625 2.4375 13.691406 2.542969 13.722656 2.6875 L 14.804688 7.613281 C 14.84375 7.785156 14.734375 7.953125 14.5625 7.992188 L 4.214844 10.265625 C 4.191406 10.269531 4.167969 10.273438 4.148438 10.273438 Z "/>
<path style=" stroke:none;fill-rule:nonzero;fill:#4788C7;fill-opacity:1;" d="M 13.414063 2.625 C 13.464844 2.625 13.523438 2.660156 13.539063 2.726563 L 14.621094 7.65625 C 14.636719 7.726563 14.59375 7.792969 14.523438 7.808594 L 4.175781 10.082031 C 4.164063 10.082031 4.15625 10.085938 4.148438 10.085938 C 4.09375 10.085938 4.035156 10.050781 4.019531 9.984375 L 2.9375 5.054688 C 2.921875 4.984375 2.96875 4.914063 3.039063 4.902344 L 13.386719 2.628906 C 13.394531 2.625 13.40625 2.625 13.414063 2.625 M 13.414063 2.25 C 13.378906 2.25 13.339844 2.253906 13.304688 2.261719 L 2.957031 4.535156 C 2.683594 4.59375 2.511719 4.863281 2.570313 5.136719 L 3.652344 10.0625 C 3.707031 10.300781 3.914063 10.460938 4.144531 10.460938 C 4.183594 10.460938 4.21875 10.457031 4.253906 10.449219 L 14.605469 8.175781 C 14.875 8.117188 15.046875 7.847656 14.988281 7.574219 L 13.90625 2.644531 C 13.855469 2.410156 13.644531 2.25 13.414063 2.25 Z "/>
<path style="fill:none;stroke-width:1;stroke-linecap:round;stroke-linejoin:miter;stroke:#4788C7;stroke-opacity:1;stroke-miterlimit:4;" d="M 24.604167 19.697917 L 35.53125 17.302083 " transform="matrix(0.375,0,0,0.375,0,0)"/>
</g>
</svg>
