<?xml version="1.0" encoding="utf-8"?>
<svg xmlns="http://www.w3.org/2000/svg" viewBox="0 0 40 40" width="20" height="20">
  <path fill="#b6dcfe" d="M7.363,37.5c-0.476,0-0.863-0.397-0.863-0.885V3.385C6.5,2.897,6.888,2.5,7.363,2.5H17.54 C17.513,2.668,17.5,2.834,17.5,3c0,1.93,1.57,3.5,3.5,3.5s3.5-1.57,3.5-3.5c0-0.166-0.013-0.332-0.04-0.5h10.177 c0.476,0,0.863,0.397,0.863,0.885v33.23c0,0.488-0.388,0.885-0.863,0.885H7.363z" />
  <path fill="#4788c7" d="M34.636,3C34.837,3,35,3.173,35,3.385v33.231C35,36.827,34.837,37,34.636,37H7.364 C7.163,37,7,36.827,7,36.615V3.385C7,3.173,7.163,3,7.364,3H17c0,2.206,1.794,4,4,4s4-1.794,4-4H34.636 M34.636,2h-10.82 C23.928,2.314,24,2.647,24,3c0,1.657-1.343,3-3,3s-3-1.343-3-3c0-0.353,0.072-0.686,0.184-1H7.364C6.611,2,6,2.62,6,3.385v33.231 C6,37.38,6.611,38,7.364,38h27.273C35.389,38,36,37.38,36,36.615V3.385C36,2.62,35.389,2,34.636,2L34.636,2z" />
  <g>
    <path fill="#98ccfd" d="M16,7.5c-0.827,0-1.5-0.673-1.5-1.5V2.5h4.036l0.038-0.106C18.525,2.588,18.5,2.791,18.5,3 c0,1.378,1.121,2.5,2.5,2.5s2.5-1.122,2.5-2.5c0-0.209-0.025-0.412-0.074-0.606L23.464,2.5H27.5V6c0,0.827-0.673,1.5-1.5,1.5H16z M20.993,0.5 M20.996,0.5c0.002,0,0.006,0,0.008,0C21.002,0.5,20.998,0.5,20.996,0.5z" />
    <path fill="#4788c7" d="M27,3v3c0,0.551-0.449,1-1,1H16c-0.551,0-1-0.449-1-1V3h3c0,1.654,1.346,3,3,3s3-1.346,3-3H27 M21,0 c-1.304,0-2.403,0.837-2.816,2H14v4c0,1.105,0.895,2,2,2h10c1.105,0,2-0.895,2-2V2h-4.184C23.403,0.837,22.304,0,21,0L21,0z M21,5 c-1.103,0-2-0.897-2-2c0-1.103,0.897-2,2-2c1.103,0,2,0.897,2,2C23,4.103,22.103,5,21,5L21,5z" />
  </g>
</svg>