<?xml version="1.0" encoding="utf-8"?>
<svg xmlns="http://www.w3.org/2000/svg" viewBox="0 0 40 40" width="20" height="20">
  <path fill="#fff" d="M6.5 37.5L6.5 2.5 24.793 2.5 33.5 11.207 33.5 37.5z" />
  <path fill="#4788c7" d="M24.586,3L33,11.414V37H7V3H24.586 M25,2H6v36h28V11L25,2L25,2z" />
  <path fill="#dff0fe" d="M24.5 11.5L24.5 2.5 24.793 2.5 33.5 11.207 33.5 11.5z" />
  <path fill="#4788c7" d="M25 3.414L32.586 11H25V3.414M25 2h-1v10h10v-1L25 2 25 2zM24 12H13c-.552 0-1-.448-1-1v0c0-.552.448-1 1-1h11V12zM14.5 18h-2c-.276 0-.5-.224-.5-.5l0 0c0-.276.224-.5.5-.5h2c.276 0 .5.224.5.5l0 0C15 17.776 14.776 18 14.5 18zM27.5 18h-10c-.276 0-.5-.224-.5-.5l0 0c0-.276.224-.5.5-.5h10c.276 0 .5.224.5.5l0 0C28 17.776 27.776 18 27.5 18zM14.5 22h-2c-.276 0-.5-.224-.5-.5l0 0c0-.276.224-.5.5-.5h2c.276 0 .5.224.5.5l0 0C15 21.776 14.776 22 14.5 22zM27.5 22h-10c-.276 0-.5-.224-.5-.5l0 0c0-.276.224-.5.5-.5h10c.276 0 .5.224.5.5l0 0C28 21.776 27.776 22 27.5 22zM14.5 26h-2c-.276 0-.5-.224-.5-.5l0 0c0-.276.224-.5.5-.5h2c.276 0 .5.224.5.5l0 0C15 25.776 14.776 26 14.5 26zM27.5 26h-10c-.276 0-.5-.224-.5-.5l0 0c0-.276.224-.5.5-.5h10c.276 0 .5.224.5.5l0 0C28 25.776 27.776 26 27.5 26zM14.5 30h-2c-.276 0-.5-.224-.5-.5l0 0c0-.276.224-.5.5-.5h2c.276 0 .5.224.5.5l0 0C15 29.776 14.776 30 14.5 30zM27.5 30h-10c-.276 0-.5-.224-.5-.5l0 0c0-.276.224-.5.5-.5h10c.276 0 .5.224.5.5l0 0C28 29.776 27.776 30 27.5 30z" />
</svg>