<?xml version="1.0" encoding="UTF-8"?>
<svg xmlns="http://www.w3.org/2000/svg" xmlns:xlink="http://www.w3.org/1999/xlink" width="15pt" height="15pt" viewBox="0 0 15 15" version="1.1">
<g id="surface1">
<path style=" stroke:none;fill-rule:nonzero;fill:#B6DCFE;fill-opacity:1;" d="M 5.597656 12.1875 C 5.417969 12.1875 5.25 12.117188 5.125 11.992188 L 0.757813 7.625 C 0.496094 7.363281 0.496094 6.9375 0.757813 6.675781 L 6.652344 0.800781 C 6.804688 0.648438 7.007813 0.5625 7.226563 0.5625 L 11.25 0.5625 C 11.765625 0.5625 12.1875 0.984375 12.1875 1.5 L 12.1875 5.539063 C 12.1875 5.761719 12.097656 5.984375 11.9375 6.140625 L 6.074219 11.992188 C 5.945313 12.117188 5.777344 12.1875 5.597656 12.1875 Z M 10.5 1.6875 C 10.191406 1.6875 9.9375 1.941406 9.9375 2.25 C 9.9375 2.558594 10.191406 2.8125 10.5 2.8125 C 10.808594 2.8125 11.0625 2.558594 11.0625 2.25 C 11.0625 1.941406 10.808594 1.6875 10.5 1.6875 Z "/>
<path style=" stroke:none;fill-rule:nonzero;fill:#4788C7;fill-opacity:1;" d="M 11.25 0.75 C 11.664063 0.75 12 1.085938 12 1.5 L 12 5.539063 C 12 5.714844 11.929688 5.882813 11.804688 6.007813 L 5.941406 11.859375 C 5.847656 11.949219 5.726563 12 5.597656 12 C 5.46875 12 5.347656 11.949219 5.257813 11.859375 L 0.890625 7.492188 C 0.703125 7.304688 0.703125 7 0.890625 6.808594 L 6.785156 0.933594 C 6.902344 0.816406 7.058594 0.75 7.226563 0.75 L 11.25 0.75 M 10.5 3 C 10.914063 3 11.25 2.664063 11.25 2.25 C 11.25 1.835938 10.914063 1.5 10.5 1.5 C 10.085938 1.5 9.75 1.835938 9.75 2.25 C 9.75 2.664063 10.085938 3 10.5 3 M 11.25 0.375 L 7.226563 0.375 C 6.960938 0.375 6.707031 0.480469 6.519531 0.667969 L 0.625 6.542969 C 0.292969 6.878906 0.292969 7.421875 0.625 7.757813 L 4.992188 12.125 C 5.160156 12.292969 5.378906 12.375 5.597656 12.375 C 5.816406 12.375 6.039063 12.292969 6.207031 12.125 L 12.070313 6.273438 C 12.265625 6.078125 12.375 5.816406 12.375 5.539063 L 12.375 1.5 C 12.375 0.878906 11.871094 0.375 11.25 0.375 Z M 10.5 2.625 C 10.292969 2.625 10.125 2.457031 10.125 2.25 C 10.125 2.042969 10.292969 1.875 10.5 1.875 C 10.707031 1.875 10.875 2.042969 10.875 2.25 C 10.875 2.457031 10.707031 2.625 10.5 2.625 Z "/>
<path style=" stroke:none;fill-rule:nonzero;fill:#DFF0FE;fill-opacity:1;" d="M 7.847656 14.4375 C 7.667969 14.4375 7.5 14.367188 7.375 14.242188 L 3.007813 9.875 C 2.746094 9.613281 2.746094 9.1875 3.007813 8.925781 L 8.902344 3.050781 C 9.054688 2.898438 9.257813 2.8125 9.476563 2.8125 L 13.5 2.8125 C 14.015625 2.8125 14.4375 3.234375 14.4375 3.75 L 14.4375 7.789063 C 14.4375 8.011719 14.347656 8.234375 14.1875 8.390625 L 8.324219 14.242188 C 8.195313 14.367188 8.027344 14.4375 7.847656 14.4375 Z M 12.75 3.9375 C 12.441406 3.9375 12.1875 4.191406 12.1875 4.5 C 12.1875 4.808594 12.441406 5.0625 12.75 5.0625 C 13.058594 5.0625 13.3125 4.808594 13.3125 4.5 C 13.3125 4.191406 13.058594 3.9375 12.75 3.9375 Z "/>
<path style=" stroke:none;fill-rule:nonzero;fill:#4788C7;fill-opacity:1;" d="M 13.5 3 C 13.914063 3 14.25 3.335938 14.25 3.75 L 14.25 7.789063 C 14.25 7.964844 14.179688 8.132813 14.054688 8.257813 L 8.191406 14.109375 C 8.097656 14.199219 7.976563 14.25 7.847656 14.25 C 7.71875 14.25 7.597656 14.199219 7.507813 14.109375 L 3.140625 9.742188 C 2.953125 9.554688 2.953125 9.25 3.140625 9.058594 L 9.035156 3.183594 C 9.152344 3.066406 9.308594 3 9.476563 3 L 13.5 3 M 12.75 5.25 C 13.164063 5.25 13.5 4.914063 13.5 4.5 C 13.5 4.085938 13.164063 3.75 12.75 3.75 C 12.335938 3.75 12 4.085938 12 4.5 C 12 4.914063 12.335938 5.25 12.75 5.25 M 13.5 2.625 L 9.476563 2.625 C 9.210938 2.625 8.957031 2.730469 8.769531 2.917969 L 2.875 8.792969 C 2.542969 9.128906 2.542969 9.671875 2.875 10.007813 L 7.242188 14.375 C 7.410156 14.542969 7.628906 14.625 7.847656 14.625 C 8.066406 14.625 8.289063 14.542969 8.457031 14.375 L 14.320313 8.523438 C 14.515625 8.328125 14.625 8.066406 14.625 7.789063 L 14.625 3.75 C 14.625 3.128906 14.121094 2.625 13.5 2.625 Z M 12.75 4.875 C 12.542969 4.875 12.375 4.707031 12.375 4.5 C 12.375 4.292969 12.542969 4.125 12.75 4.125 C 12.957031 4.125 13.125 4.292969 13.125 4.5 C 13.125 4.707031 12.957031 4.875 12.75 4.875 Z "/>
</g>
</svg>
