<?xml version="1.0" encoding="UTF-8"?>
<svg xmlns="http://www.w3.org/2000/svg" xmlns:xlink="http://www.w3.org/1999/xlink" width="15pt" height="15pt" viewBox="0 0 15 15" version="1.1">
<g id="surface1">
<path style=" stroke:none;fill-rule:nonzero;fill:#B6DCFE;fill-opacity:1;" d="M 1.3125 2.8125 L 13.6875 2.8125 L 13.6875 13.6875 L 1.3125 13.6875 Z "/>
<path style=" stroke:none;fill-rule:nonzero;fill:#4788C7;fill-opacity:1;" d="M 13.5 3 L 13.5 13.5 L 1.5 13.5 L 1.5 3 L 13.5 3 M 13.875 2.625 L 1.125 2.625 L 1.125 13.875 L 13.875 13.875 Z "/>
<path style=" stroke:none;fill-rule:nonzero;fill:#B6DCFE;fill-opacity:1;" d="M 0.9375 1.3125 L 14.0625 1.3125 L 14.0625 2.8125 L 0.9375 2.8125 Z "/>
<path style=" stroke:none;fill-rule:nonzero;fill:#4788C7;fill-opacity:1;" d="M 13.875 1.5 L 13.875 2.625 L 1.125 2.625 L 1.125 1.5 L 13.875 1.5 M 14.25 1.125 L 0.75 1.125 L 0.75 3 L 14.25 3 Z "/>
<path style=" stroke:none;fill-rule:nonzero;fill:#4788C7;fill-opacity:1;" d="M 9 4.125 L 6 4.125 C 5.792969 4.125 5.625 4.292969 5.625 4.5 C 5.625 4.707031 5.792969 4.875 6 4.875 L 9 4.875 C 9.207031 4.875 9.375 4.707031 9.375 4.5 C 9.375 4.292969 9.207031 4.125 9 4.125 Z "/>
</g>
</svg>
