<?xml version="1.0" encoding="utf-8"?>
<svg xmlns="http://www.w3.org/2000/svg" viewBox="0 0 40 40" width="20" height="20">
  <path fill="#dff0fe" d="M5.5 2.5H34.5V37.5H5.5z" />
  <path fill="#4788c7" d="M34,3v34H6V3H34 M35,2H5v36h30V2L35,2z" />
  <g>
    <path fill="#4788c7" d="M29.5 14h-15c-.276 0-.5-.224-.5-.5v0c0-.276.224-.5.5-.5h15c.276 0 .5.224.5.5v0C30 13.776 29.776 14 29.5 14zM11.5 14h-1c-.276 0-.5-.224-.5-.5v0c0-.276.224-.5.5-.5h1c.276 0 .5.224.5.5v0C12 13.776 11.776 14 11.5 14zM29.5 18h-15c-.276 0-.5-.224-.5-.5v0c0-.276.224-.5.5-.5h15c.276 0 .5.224.5.5v0C30 17.776 29.776 18 29.5 18zM11.5 18h-1c-.276 0-.5-.224-.5-.5v0c0-.276.224-.5.5-.5h1c.276 0 .5.224.5.5v0C12 17.776 11.776 18 11.5 18zM29.5 22h-15c-.276 0-.5-.224-.5-.5v0c0-.276.224-.5.5-.5h15c.276 0 .5.224.5.5v0C30 21.776 29.776 22 29.5 22zM11.5 22h-1c-.276 0-.5-.224-.5-.5v0c0-.276.224-.5.5-.5h1c.276 0 .5.224.5.5v0C12 21.776 11.776 22 11.5 22zM29.5 26h-15c-.276 0-.5-.224-.5-.5v0c0-.276.224-.5.5-.5h15c.276 0 .5.224.5.5v0C30 25.776 29.776 26 29.5 26zM11.5 26h-1c-.276 0-.5-.224-.5-.5v0c0-.276.224-.5.5-.5h1c.276 0 .5.224.5.5v0C12 25.776 11.776 26 11.5 26z" />
  </g>
</svg>