<?xml version="1.0" encoding="UTF-8"?>
<svg xmlns="http://www.w3.org/2000/svg" xmlns:xlink="http://www.w3.org/1999/xlink" width="15pt" height="15pt" viewBox="0 0 15 15" version="1.1">
<g id="surface1">
<path style=" stroke:none;fill-rule:nonzero;fill:#DFF0FE;fill-opacity:1;" d="M 13.6875 6.375 C 13.6875 7.308594 12.933594 8.0625 12 8.0625 C 11.066406 8.0625 10.3125 7.308594 10.3125 6.375 C 10.3125 5.441406 11.066406 4.6875 12 4.6875 C 12.933594 4.6875 13.6875 5.441406 13.6875 6.375 Z "/>
<path style=" stroke:none;fill-rule:nonzero;fill:#4788C7;fill-opacity:1;" d="M 12 4.875 C 12.828125 4.875 13.5 5.546875 13.5 6.375 C 13.5 7.203125 12.828125 7.875 12 7.875 C 11.171875 7.875 10.5 7.203125 10.5 6.375 C 10.5 5.546875 11.171875 4.875 12 4.875 M 12 4.5 C 10.964844 4.5 10.125 5.339844 10.125 6.375 C 10.125 7.410156 10.964844 8.25 12 8.25 C 13.035156 8.25 13.875 7.410156 13.875 6.375 C 13.875 5.339844 13.035156 4.5 12 4.5 Z "/>
<path style=" stroke:none;fill-rule:nonzero;fill:#98CCFD;fill-opacity:1;" d="M 9.1875 12.1875 L 9.1875 12 C 9.1875 10.449219 10.449219 9.1875 12 9.1875 C 13.550781 9.1875 14.8125 10.449219 14.8125 12 L 14.8125 12.1875 Z "/>
<path style=" stroke:none;fill-rule:nonzero;fill:#4788C7;fill-opacity:1;" d="M 12 9.375 C 13.449219 9.375 14.625 10.550781 14.625 12 L 9.375 12 C 9.375 10.550781 10.550781 9.375 12 9.375 M 12 9 C 10.34375 9 9 10.34375 9 12 L 9 12.375 L 15 12.375 L 15 12 C 15 10.34375 13.65625 9 12 9 Z "/>
<path style=" stroke:none;fill-rule:nonzero;fill:#DFF0FE;fill-opacity:1;" d="M 4.6875 6.375 C 4.6875 7.308594 3.933594 8.0625 3 8.0625 C 2.066406 8.0625 1.3125 7.308594 1.3125 6.375 C 1.3125 5.441406 2.066406 4.6875 3 4.6875 C 3.933594 4.6875 4.6875 5.441406 4.6875 6.375 Z "/>
<path style=" stroke:none;fill-rule:nonzero;fill:#4788C7;fill-opacity:1;" d="M 3 4.875 C 3.828125 4.875 4.5 5.546875 4.5 6.375 C 4.5 7.203125 3.828125 7.875 3 7.875 C 2.171875 7.875 1.5 7.203125 1.5 6.375 C 1.5 5.546875 2.171875 4.875 3 4.875 M 3 4.5 C 1.964844 4.5 1.125 5.339844 1.125 6.375 C 1.125 7.410156 1.964844 8.25 3 8.25 C 4.035156 8.25 4.875 7.410156 4.875 6.375 C 4.875 5.339844 4.035156 4.5 3 4.5 Z "/>
<path style=" stroke:none;fill-rule:nonzero;fill:#DFF0FE;fill-opacity:1;" d="M 6.9375 2.8125 C 6.9375 3.640625 6.265625 4.3125 5.4375 4.3125 C 4.609375 4.3125 3.9375 3.640625 3.9375 2.8125 C 3.9375 1.984375 4.609375 1.3125 5.4375 1.3125 C 6.265625 1.3125 6.9375 1.984375 6.9375 2.8125 Z "/>
<path style=" stroke:none;fill-rule:nonzero;fill:#4788C7;fill-opacity:1;" d="M 5.4375 1.5 C 6.160156 1.5 6.75 2.089844 6.75 2.8125 C 6.75 3.535156 6.160156 4.125 5.4375 4.125 C 4.714844 4.125 4.125 3.535156 4.125 2.8125 C 4.125 2.089844 4.714844 1.5 5.4375 1.5 M 5.4375 1.125 C 4.503906 1.125 3.75 1.878906 3.75 2.8125 C 3.75 3.746094 4.503906 4.5 5.4375 4.5 C 6.371094 4.5 7.125 3.746094 7.125 2.8125 C 7.125 1.878906 6.371094 1.125 5.4375 1.125 Z "/>
<path style=" stroke:none;fill-rule:nonzero;fill:#DFF0FE;fill-opacity:1;" d="M 11.0625 2.8125 C 11.0625 3.640625 10.390625 4.3125 9.5625 4.3125 C 8.734375 4.3125 8.0625 3.640625 8.0625 2.8125 C 8.0625 1.984375 8.734375 1.3125 9.5625 1.3125 C 10.390625 1.3125 11.0625 1.984375 11.0625 2.8125 Z "/>
<path style=" stroke:none;fill-rule:nonzero;fill:#4788C7;fill-opacity:1;" d="M 9.5625 1.5 C 10.285156 1.5 10.875 2.089844 10.875 2.8125 C 10.875 3.535156 10.285156 4.125 9.5625 4.125 C 8.839844 4.125 8.25 3.535156 8.25 2.8125 C 8.25 2.089844 8.839844 1.5 9.5625 1.5 M 9.5625 1.125 C 8.628906 1.125 7.875 1.878906 7.875 2.8125 C 7.875 3.746094 8.628906 4.5 9.5625 4.5 C 10.496094 4.5 11.25 3.746094 11.25 2.8125 C 11.25 1.878906 10.496094 1.125 9.5625 1.125 Z "/>
<path style=" stroke:none;fill-rule:nonzero;fill:#98CCFD;fill-opacity:1;" d="M 0.1875 12.1875 L 0.1875 12 C 0.1875 10.449219 1.449219 9.1875 3 9.1875 C 4.550781 9.1875 5.8125 10.449219 5.8125 12 L 5.8125 12.1875 Z "/>
<path style=" stroke:none;fill-rule:nonzero;fill:#4788C7;fill-opacity:1;" d="M 3 9.375 C 4.449219 9.375 5.625 10.550781 5.625 12 L 0.375 12 C 0.375 10.550781 1.550781 9.375 3 9.375 M 3 9 C 1.34375 9 0 10.34375 0 12 L 0 12.375 L 6 12.375 L 6 12 C 6 10.34375 4.65625 9 3 9 Z "/>
<path style=" stroke:none;fill-rule:nonzero;fill:#DFF0FE;fill-opacity:1;" d="M 9.1875 8.25 C 9.1875 9.183594 8.433594 9.9375 7.5 9.9375 C 6.566406 9.9375 5.8125 9.183594 5.8125 8.25 C 5.8125 7.316406 6.566406 6.5625 7.5 6.5625 C 8.433594 6.5625 9.1875 7.316406 9.1875 8.25 Z "/>
<path style=" stroke:none;fill-rule:nonzero;fill:#4788C7;fill-opacity:1;" d="M 7.5 6.75 C 8.328125 6.75 9 7.421875 9 8.25 C 9 9.078125 8.328125 9.75 7.5 9.75 C 6.671875 9.75 6 9.078125 6 8.25 C 6 7.421875 6.671875 6.75 7.5 6.75 M 7.5 6.375 C 6.464844 6.375 5.625 7.214844 5.625 8.25 C 5.625 9.285156 6.464844 10.125 7.5 10.125 C 8.535156 10.125 9.375 9.285156 9.375 8.25 C 9.375 7.214844 8.535156 6.375 7.5 6.375 Z "/>
<path style=" stroke:none;fill-rule:nonzero;fill:#B6DCFE;fill-opacity:1;" d="M 4.6875 14.0625 L 4.6875 13.875 C 4.6875 12.324219 5.949219 11.0625 7.5 11.0625 C 9.050781 11.0625 10.3125 12.324219 10.3125 13.875 L 10.3125 14.0625 Z "/>
<path style=" stroke:none;fill-rule:nonzero;fill:#4788C7;fill-opacity:1;" d="M 7.5 11.25 C 8.949219 11.25 10.125 12.425781 10.125 13.875 L 4.875 13.875 C 4.875 12.425781 6.050781 11.25 7.5 11.25 M 7.5 10.875 C 5.84375 10.875 4.5 12.21875 4.5 13.875 L 4.5 14.25 L 10.5 14.25 L 10.5 13.875 C 10.5 12.21875 9.15625 10.875 7.5 10.875 Z "/>
</g>
</svg>
