<?xml version="1.0" encoding="UTF-8"?>
<svg xmlns="http://www.w3.org/2000/svg" xmlns:xlink="http://www.w3.org/1999/xlink" width="15pt" height="15pt" viewBox="0 0 15 15" version="1.1">
<g id="surface1">
<path style=" stroke:none;fill-rule:nonzero;fill:#B6DCFE;fill-opacity:1;" d="M 1.691406 14.4375 C 1.789063 12.144531 3.683594 10.3125 6 10.3125 L 9 10.3125 C 11.316406 10.3125 13.210938 12.144531 13.308594 14.4375 Z "/>
<path style=" stroke:none;fill-rule:nonzero;fill:#4788C7;fill-opacity:1;" d="M 9 10.5 C 11.148438 10.5 12.917969 12.148438 13.109375 14.25 L 1.890625 14.25 C 2.082031 12.148438 3.851563 10.5 6 10.5 L 9 10.5 M 9 10.125 L 6 10.125 C 3.515625 10.125 1.5 12.140625 1.5 14.625 L 13.5 14.625 C 13.5 12.140625 11.484375 10.125 9 10.125 Z "/>
<path style=" stroke:none;fill-rule:nonzero;fill:#FFFFFF;fill-opacity:1;" d="M 7.5 11.4375 C 6.292969 11.4375 5.882813 10.648438 5.8125 10.488281 L 5.8125 8.4375 L 9.1875 8.4375 L 9.1875 10.488281 C 9.117188 10.648438 8.707031 11.4375 7.5 11.4375 Z "/>
<path style=" stroke:none;fill-rule:nonzero;fill:#4788C7;fill-opacity:1;" d="M 9 8.625 L 9 10.445313 C 8.910156 10.628906 8.527344 11.25 7.5 11.25 C 6.476563 11.25 6.089844 10.628906 6 10.445313 L 6 8.625 L 9 8.625 M 9.375 8.25 L 5.625 8.25 L 5.625 10.523438 C 5.625 10.523438 6.023438 11.625 7.5 11.625 C 8.976563 11.625 9.375 10.523438 9.375 10.523438 Z "/>
<path style=" stroke:none;fill-rule:nonzero;fill:#DFF0FE;fill-opacity:1;" d="M 10.179688 7.207031 C 9.691406 7.207031 9.296875 6.808594 9.296875 6.320313 C 9.296875 5.835938 9.691406 5.4375 10.179688 5.4375 C 10.914063 5.4375 11.0625 5.640625 11.0625 5.964844 C 11.0625 6.496094 10.625 7.207031 10.179688 7.207031 Z M 4.820313 7.207031 C 4.375 7.207031 3.9375 6.496094 3.9375 5.964844 C 3.9375 5.640625 4.085938 5.4375 4.820313 5.4375 C 5.308594 5.4375 5.703125 5.832031 5.703125 6.320313 C 5.703125 6.808594 5.308594 7.207031 4.820313 7.207031 Z "/>
<path style=" stroke:none;fill-rule:nonzero;fill:#4788C7;fill-opacity:1;" d="M 10.179688 5.625 C 10.875 5.625 10.875 5.804688 10.875 5.964844 C 10.875 6.425781 10.484375 7.019531 10.179688 7.019531 C 9.792969 7.019531 9.480469 6.707031 9.480469 6.320313 C 9.480469 5.9375 9.792969 5.625 10.179688 5.625 M 4.820313 5.625 C 5.207031 5.625 5.519531 5.9375 5.519531 6.320313 C 5.519531 6.707031 5.207031 7.019531 4.820313 7.019531 C 4.515625 7.019531 4.125 6.425781 4.125 5.964844 C 4.125 5.804688 4.125 5.625 4.820313 5.625 M 10.179688 5.25 C 9.585938 5.25 9.105469 5.730469 9.105469 6.320313 C 9.105469 6.914063 9.585938 7.394531 10.179688 7.394531 C 10.769531 7.394531 11.25 6.554688 11.25 5.964844 C 11.25 5.371094 10.769531 5.25 10.179688 5.25 Z M 4.820313 5.25 C 4.230469 5.25 3.75 5.371094 3.75 5.964844 C 3.75 6.554688 4.230469 7.394531 4.820313 7.394531 C 5.414063 7.394531 5.894531 6.914063 5.894531 6.320313 C 5.894531 5.730469 5.414063 5.25 4.820313 5.25 Z "/>
<path style=" stroke:none;fill-rule:nonzero;fill:#FFFFFF;fill-opacity:1;" d="M 7.5 9.9375 C 7.273438 9.9375 7.058594 9.855469 6.882813 9.703125 L 6.851563 9.671875 L 6.804688 9.660156 C 5.558594 9.34375 4.6875 8.222656 4.6875 6.9375 L 4.6875 3.449219 C 4.6875 2.765625 5.246094 2.207031 5.929688 2.207031 L 9.070313 2.207031 C 9.753906 2.207031 10.3125 2.765625 10.3125 3.449219 L 10.3125 6.9375 C 10.3125 8.222656 9.441406 9.34375 8.195313 9.660156 L 8.148438 9.671875 L 8.117188 9.703125 C 7.941406 9.855469 7.726563 9.9375 7.5 9.9375 Z "/>
<path style=" stroke:none;fill-rule:nonzero;fill:#4788C7;fill-opacity:1;" d="M 9.070313 2.394531 C 9.652344 2.394531 10.125 2.867188 10.125 3.449219 L 10.125 6.9375 C 10.125 8.136719 9.3125 9.183594 8.148438 9.476563 L 8.058594 9.5 L 7.992188 9.558594 C 7.894531 9.648438 7.726563 9.75 7.5 9.75 C 7.273438 9.75 7.105469 9.648438 7.007813 9.558594 L 6.941406 9.5 L 6.851563 9.476563 C 5.6875 9.183594 4.875 8.136719 4.875 6.9375 L 4.875 3.449219 C 4.875 2.867188 5.347656 2.394531 5.929688 2.394531 L 9.070313 2.394531 M 9.070313 2.019531 L 5.929688 2.019531 C 5.140625 2.019531 4.5 2.660156 4.5 3.449219 L 4.5 6.9375 C 4.5 8.339844 5.460938 9.511719 6.761719 9.84375 C 6.957031 10.015625 7.214844 10.125 7.5 10.125 C 7.785156 10.125 8.042969 10.015625 8.238281 9.84375 C 9.539063 9.511719 10.5 8.339844 10.5 6.9375 L 10.5 3.449219 C 10.5 2.660156 9.859375 2.019531 9.070313 2.019531 Z "/>
<path style=" stroke:none;fill-rule:nonzero;fill:#B6DCFE;fill-opacity:1;" d="M 10.3125 6.5625 L 10.3125 5.25 C 10.3125 3.886719 9.175781 3.15625 9.125 3.125 L 8.976563 3.03125 L 8.875 3.175781 C 8.84375 3.21875 8.078125 4.257813 6.429688 4.257813 C 6 4.257813 4.6875 4.257813 4.6875 5.625 L 4.6875 6.5625 L 4.621094 6.5625 C 4.457031 6.195313 3.9375 4.9375 3.9375 3.867188 C 3.9375 1.890625 5.292969 0.5625 7.3125 0.5625 C 8.753906 0.5625 9.183594 1.53125 9.203125 1.574219 L 9.25 1.6875 L 9.375 1.6875 C 10 1.6875 11.0625 2.125 11.0625 3.753906 C 11.0625 4.738281 10.535156 6.152344 10.375 6.5625 Z "/>
<path style=" stroke:none;fill-rule:nonzero;fill:#4788C7;fill-opacity:1;" d="M 7.3125 0.75 C 8.617188 0.75 9.015625 1.613281 9.027344 1.644531 L 9.125 1.875 L 9.375 1.875 C 10.066406 1.875 10.875 2.367188 10.875 3.753906 C 10.875 4.332031 10.683594 5.066406 10.5 5.648438 L 10.5 5.25 C 10.5 3.785156 9.277344 3 9.226563 2.96875 L 8.925781 2.777344 L 8.71875 3.066406 C 8.714844 3.078125 7.992188 4.070313 6.429688 4.070313 C 5.148438 4.070313 4.5 4.59375 4.5 5.625 L 4.5 5.742188 C 4.316406 5.210938 4.125 4.503906 4.125 3.867188 C 4.125 2.003906 5.40625 0.75 7.3125 0.75 M 7.3125 0.375 C 5.128906 0.375 3.75 1.867188 3.75 3.867188 C 3.75 5.191406 4.5 6.75 4.5 6.75 L 4.875 6.75 C 4.875 6.75 4.875 5.988281 4.875 5.625 C 4.875 4.625 5.632813 4.445313 6.429688 4.445313 C 8.203125 4.445313 9.027344 3.285156 9.027344 3.285156 C 9.027344 3.285156 10.125 3.976563 10.125 5.25 C 10.125 5.652344 10.125 6.75 10.125 6.75 L 10.5 6.75 C 10.5 6.75 11.25 4.960938 11.25 3.753906 C 11.25 2.0625 10.171875 1.5 9.375 1.5 C 9.375 1.5 8.90625 0.375 7.3125 0.375 Z "/>
</g>
</svg>
