<?xml version="1.0" encoding="utf-8"?>
<svg xmlns="http://www.w3.org/2000/svg" viewBox="0 0 40 40" width="20" height="20">
  <path fill="#98ccfd" d="M9.5,21.5v-6.002c0-0.55,0.447-0.998,0.998-0.998c0.458,0,0.856,0.311,0.968,0.755l1.035,4.798V21.5 H9.5z" />
  <path fill="#4788c7" d="M10.497 15c.229 0 .427.155.475.345L12 20.107V21h-2v-5.503C10 15.223 10.223 15 10.497 15M10.497 14C9.67 14 9 14.67 9 15.497V22h4v-2l-1.05-4.866C11.784 14.468 11.185 14 10.497 14L10.497 14zM30 35h8c.552 0 1-.448 1-1l0 0c0-.552-.448-1-1-1h-8V35z" />
  <path fill="#b6dcfe" d="M22.5,26.5V24c0-4.158-3.227-12.012-4.216-14.32C17.091,7.097,14.686,5.5,12,5.5H6.5v17h-3v-20H12 c3.918,0,7.401,2.272,9.089,5.931C21.832,10.148,25.5,18.89,25.5,24v2.5H22.5z" />
  <path fill="#4788c7" d="M12,3c3.721,0,7.03,2.161,8.637,5.644C21.084,9.677,25,18.878,25,24v2h-2v-2 c0-4.255-3.258-12.188-4.268-14.543C17.463,6.708,14.883,5,12,5H7H6v1v16H4V3H12 M12,2H3v21h4V6h5c2.579,0,4.766,1.585,5.825,3.876 C18.986,12.585,22,20.081,22,24v3h4v-3c0-5.557-4.25-15.3-4.457-15.779C19.799,4.442,16.162,2,12,2L12,2z" />
  <path fill="#dff0fe" d="M3,34.5c-0.827,0-1.5-0.673-1.5-1.5V22c0-0.827,0.673-1.5,1.5-1.5h10.785l3.786,4H26 c1.93,0,3.5,1.57,3.5,3.5v5c0,0.827-0.673,1.5-1.5,1.5H3z" />
  <path fill="#4788c7" d="M13.57,21l3.49,3.687L17.355,25h0.43H26c1.654,0,3,1.346,3,3v5c0,0.551-0.449,1-1,1H3 c-0.551,0-1-0.449-1-1V22c0-0.551,0.449-1,1-1H13.57 M14,20H3c-1.105,0-2,0.895-2,2v11c0,1.105,0.895,2,2,2h25 c1.105,0,2-0.895,2-2v-5c0-2.209-1.791-4-4-4h-8.214L14,20L14,20z" />
  <path fill="#b6dcfe" d="M29.5 1.5H32.5V34.5H29.5z" />
  <path fill="#4788c7" d="M32,2v32h-2V2H32 M33,1h-4v34h4V1L33,1z" />
  <g>
    <path fill="#b6dcfe" d="M8.5 30.5A4 4 0 1 0 8.5 38.5A4 4 0 1 0 8.5 30.5Z" />
    <path fill="#4788c7" d="M8.5,31c1.93,0,3.5,1.57,3.5,3.5S10.43,38,8.5,38S5,36.43,5,34.5S6.57,31,8.5,31 M8.5,30 C6.015,30,4,32.015,4,34.5S6.015,39,8.5,39s4.5-2.015,4.5-4.5S10.985,30,8.5,30L8.5,30z" />
  </g>
  <g>
    <path fill="#4788c7" d="M8.5 33A1.5 1.5 0 1 0 8.5 36A1.5 1.5 0 1 0 8.5 33Z" />
  </g>
  <g>
    <path fill="#b6dcfe" d="M28.5 30.5A4 4 0 1 0 28.5 38.5A4 4 0 1 0 28.5 30.5Z" />
    <path fill="#4788c7" d="M28.5,31c1.93,0,3.5,1.57,3.5,3.5S30.43,38,28.5,38S25,36.43,25,34.5S26.57,31,28.5,31 M28.5,30 c-2.485,0-4.5,2.015-4.5,4.5s2.015,4.5,4.5,4.5s4.5-2.015,4.5-4.5S30.985,30,28.5,30L28.5,30z" />
  </g>
  <g>
    <path fill="#4788c7" d="M28.5 33A1.5 1.5 0 1 0 28.5 36A1.5 1.5 0 1 0 28.5 33Z" />
  </g>
</svg>